<mxfile host="65bd71144e">
    <diagram id="jxS3WxsTyOZsvZLgjvCe" name="ページ1">
        <mxGraphModel dx="1233" dy="851" grid="0" gridSize="10" guides="1" tooltips="1" connect="1" arrows="1" fold="1" page="1" pageScale="1" pageWidth="1169" pageHeight="827" background="#000000" math="0" shadow="0">
            <root>
                <mxCell id="0"/>
                <mxCell id="1" parent="0"/>
                <mxCell id="71" value="" style="rounded=1;whiteSpace=wrap;html=1;glass=0;fillColor=none;strokeColor=#FFFF66;arcSize=5;strokeWidth=3;fontColor=#FFFFFF;" parent="1" vertex="1">
                    <mxGeometry x="10" y="10" width="1150" height="810" as="geometry"/>
                </mxCell>
                <mxCell id="62" style="edgeStyle=none;html=1;strokeColor=#FFCC99;shape=arrow;fillColor=#FFCC99;" parent="1" source="3" edge="1">
                    <mxGeometry relative="1" as="geometry">
                        <mxPoint x="360" y="480" as="targetPoint"/>
                    </mxGeometry>
                </mxCell>
                <mxCell id="66" style="edgeStyle=none;html=1;entryX=0;entryY=0.5;entryDx=0;entryDy=0;shape=arrow;strokeColor=#FFCC99;fillColor=#FFCC99;" parent="1" source="3" target="4" edge="1">
                    <mxGeometry relative="1" as="geometry"/>
                </mxCell>
                <mxCell id="69" style="edgeStyle=none;html=1;entryX=0;entryY=0.5;entryDx=0;entryDy=0;shape=arrow;strokeColor=#FFCC99;fillColor=#FFCC99;" parent="1" source="3" target="6" edge="1">
                    <mxGeometry relative="1" as="geometry"/>
                </mxCell>
                <mxCell id="3" value="base" style="swimlane;whiteSpace=wrap;html=1;strokeColor=#FFFFFF;fillColor=#99FFFF;gradientColor=none;" parent="1" vertex="1">
                    <mxGeometry x="40" y="120" width="200" height="200" as="geometry"/>
                </mxCell>
                <mxCell id="4" value="install" style="swimlane;whiteSpace=wrap;html=1;strokeColor=#FFFFFF;fillColor=#99FFFF;" parent="1" vertex="1">
                    <mxGeometry x="600" y="110" width="200" height="200" as="geometry"/>
                </mxCell>
                <mxCell id="28" value="" style="edgeStyle=none;html=1;" parent="4" source="26" target="25" edge="1">
                    <mxGeometry relative="1" as="geometry"/>
                </mxCell>
                <mxCell id="26" value="/temp/prod" style="sketch=0;pointerEvents=1;shadow=0;dashed=0;html=1;strokeColor=none;fillColor=#FFFF66;labelPosition=center;verticalLabelPosition=bottom;verticalAlign=top;outlineConnect=0;align=center;shape=mxgraph.office.concepts.folder;fillStyle=solid;labelBackgroundColor=none;fontColor=#FF6666;" parent="4" vertex="1">
                    <mxGeometry x="27" y="40" width="50" height="50" as="geometry"/>
                </mxCell>
                <mxCell id="25" value="/temp/dev" style="sketch=0;pointerEvents=1;shadow=0;dashed=0;html=1;strokeColor=none;fillColor=#FFFF66;labelPosition=center;verticalLabelPosition=bottom;verticalAlign=top;outlineConnect=0;align=center;shape=mxgraph.office.concepts.folder;fillStyle=solid;fontColor=#FF6666;" parent="4" vertex="1">
                    <mxGeometry x="27" y="120" width="50" height="50" as="geometry"/>
                </mxCell>
                <mxCell id="6" value="&lt;div&gt;&lt;span style=&quot;background-color: transparent;&quot;&gt;release&lt;/span&gt;&lt;/div&gt;" style="swimlane;whiteSpace=wrap;html=1;strokeColor=#FFFFFF;fillColor=#99FFFF;" parent="1" vertex="1">
                    <mxGeometry x="840" y="350" width="200" height="200" as="geometry"/>
                </mxCell>
                <mxCell id="45" value="node_modules" style="sketch=0;pointerEvents=1;shadow=0;dashed=0;html=1;strokeColor=none;fillColor=#FFFF66;labelPosition=center;verticalLabelPosition=bottom;verticalAlign=top;outlineConnect=0;align=center;shape=mxgraph.office.concepts.folder;fillStyle=solid;fontColor=#FF6666;" parent="6" vertex="1">
                    <mxGeometry x="130" y="40" width="50" height="50" as="geometry"/>
                </mxCell>
                <mxCell id="47" value="/usr/src/app" style="sketch=0;pointerEvents=1;shadow=0;dashed=0;html=1;strokeColor=none;fillColor=#FFFF66;labelPosition=center;verticalLabelPosition=bottom;verticalAlign=top;outlineConnect=0;align=center;shape=mxgraph.office.concepts.folder;fillStyle=solid;fontColor=#FF6666;" parent="6" vertex="1">
                    <mxGeometry x="20" y="40" width="50" height="50" as="geometry"/>
                </mxCell>
                <mxCell id="48" value="dist" style="sketch=0;pointerEvents=1;shadow=0;dashed=0;html=1;strokeColor=none;fillColor=#FFFF66;labelPosition=center;verticalLabelPosition=bottom;verticalAlign=top;outlineConnect=0;align=center;shape=mxgraph.office.concepts.folder;fillStyle=solid;fontColor=#FF6666;" parent="6" vertex="1">
                    <mxGeometry x="130" y="120" width="50" height="50" as="geometry"/>
                </mxCell>
                <mxCell id="49" value="" style="endArrow=none;html=1;strokeColor=#FFFFFF;rounded=0;curved=0;" parent="6" source="47" target="48" edge="1">
                    <mxGeometry width="50" height="50" relative="1" as="geometry">
                        <mxPoint x="260" y="140" as="sourcePoint"/>
                        <mxPoint x="90" y="170" as="targetPoint"/>
                        <Array as="points">
                            <mxPoint x="100" y="65"/>
                            <mxPoint x="100" y="145"/>
                        </Array>
                    </mxGeometry>
                </mxCell>
                <mxCell id="50" value="" style="endArrow=none;html=1;strokeColor=#FFFFFF;endFill=0;rounded=0;curved=0;" parent="6" source="47" target="45" edge="1">
                    <mxGeometry width="50" height="50" relative="1" as="geometry">
                        <mxPoint x="70" y="64.5" as="sourcePoint"/>
                        <mxPoint x="130" y="64.5" as="targetPoint"/>
                    </mxGeometry>
                </mxCell>
                <mxCell id="7" value="&lt;div&gt;&lt;span style=&quot;background-color: transparent;&quot;&gt;runtime&lt;/span&gt;&lt;/div&gt;" style="swimlane;whiteSpace=wrap;html=1;strokeColor=#FFFFFF;fillColor=#99FFFF;" parent="1" vertex="1">
                    <mxGeometry x="880" y="600" width="200" height="200" as="geometry"/>
                </mxCell>
                <mxCell id="59" value="&lt;font style=&quot;color: rgb(255, 102, 102);&quot;&gt;/usr/local/apache2/htdocs&lt;/font&gt;" style="sketch=0;pointerEvents=1;shadow=0;dashed=0;html=1;strokeColor=none;fillColor=#FFFF66;labelPosition=center;verticalLabelPosition=bottom;verticalAlign=top;outlineConnect=0;align=center;shape=mxgraph.office.concepts.folder;fillStyle=solid;fontColor=#FF6666;" parent="7" vertex="1">
                    <mxGeometry x="75" y="110" width="50" height="50" as="geometry"/>
                </mxCell>
                <mxCell id="9" style="edgeStyle=none;html=1;entryX=0.5;entryY=1;entryDx=0;entryDy=0;strokeColor=#FFCC99;shape=arrow;fillColor=#FFCC99;" parent="1" source="8" target="3" edge="1">
                    <mxGeometry relative="1" as="geometry"/>
                </mxCell>
                <mxCell id="10" value="oven/bun:latest" style="edgeLabel;html=1;align=center;verticalAlign=middle;resizable=0;points=[];fontSize=14;labelBackgroundColor=#FFFF66;fontStyle=1" parent="9" vertex="1" connectable="0">
                    <mxGeometry x="0.0529" relative="1" as="geometry">
                        <mxPoint as="offset"/>
                    </mxGeometry>
                </mxCell>
                <mxCell id="11" style="edgeStyle=none;html=1;strokeColor=#FFCC99;entryX=0;entryY=0.5;entryDx=0;entryDy=0;shape=arrow;fillColor=#FFCC99;" parent="1" source="8" target="7" edge="1">
                    <mxGeometry relative="1" as="geometry">
                        <mxPoint x="640" y="720" as="targetPoint"/>
                    </mxGeometry>
                </mxCell>
                <mxCell id="12" value="httpd:2.4" style="edgeLabel;html=1;align=center;verticalAlign=middle;resizable=0;points=[];fontSize=14;fontStyle=1;labelBackgroundColor=#FFFF66;" parent="11" vertex="1" connectable="0">
                    <mxGeometry x="0.0056" relative="1" as="geometry">
                        <mxPoint as="offset"/>
                    </mxGeometry>
                </mxCell>
                <mxCell id="8" value="" style="ellipse;shape=cloud;whiteSpace=wrap;html=1;fillColor=#dae8fc;strokeColor=#6c8ebf;" parent="1" vertex="1">
                    <mxGeometry x="80" y="660" width="120" height="80" as="geometry"/>
                </mxCell>
                <mxCell id="21" style="edgeStyle=none;html=1;strokeColor=#FFFF66;exitX=1;exitY=0.5;exitDx=0;exitDy=0;exitPerimeter=0;" parent="1" source="19" target="25" edge="1">
                    <mxGeometry relative="1" as="geometry">
                        <mxPoint x="347.72727272727275" y="225" as="sourcePoint"/>
                        <Array as="points">
                            <mxPoint x="520" y="90"/>
                            <mxPoint x="520" y="255"/>
                        </Array>
                    </mxGeometry>
                </mxCell>
                <mxCell id="27" style="edgeStyle=none;html=1;strokeColor=#FFFF66;labelBackgroundColor=#000000;fontColor=#FFFFFF;" parent="1" source="35" target="26" edge="1">
                    <mxGeometry relative="1" as="geometry">
                        <Array as="points">
                            <mxPoint x="520" y="90"/>
                            <mxPoint x="520" y="175"/>
                        </Array>
                    </mxGeometry>
                </mxCell>
                <mxCell id="38" style="edgeStyle=none;html=1;strokeColor=#FFFF66;exitX=0.228;exitY=0.993;exitDx=0;exitDy=0;exitPerimeter=0;" parent="1" source="19" target="24" edge="1">
                    <mxGeometry relative="1" as="geometry">
                        <Array as="points">
                            <mxPoint x="340" y="415"/>
                        </Array>
                    </mxGeometry>
                </mxCell>
                <mxCell id="19" value="" style="shape=cylinder3;whiteSpace=wrap;html=1;boundedLbl=1;backgroundOutline=1;size=15;fillColor=#dae8fc;strokeColor=#6c8ebf;" parent="1" vertex="1">
                    <mxGeometry x="320" y="30" width="100" height="120" as="geometry"/>
                </mxCell>
                <mxCell id="5" value="prerelease" style="swimlane;whiteSpace=wrap;html=1;strokeColor=#FFFFFF;fillColor=#99FFFF;" parent="1" vertex="1">
                    <mxGeometry x="360" y="350" width="200" height="200" as="geometry"/>
                </mxCell>
                <mxCell id="24" value="/usr/src/app" style="sketch=0;pointerEvents=1;shadow=0;dashed=0;html=1;strokeColor=none;fillColor=#FFFF66;labelPosition=center;verticalLabelPosition=bottom;verticalAlign=top;outlineConnect=0;align=center;shape=mxgraph.office.concepts.folder;fillStyle=solid;fontColor=#FF6666;" parent="5" vertex="1">
                    <mxGeometry x="20" y="40" width="50" height="50" as="geometry"/>
                </mxCell>
                <mxCell id="40" value="node_modules" style="sketch=0;pointerEvents=1;shadow=0;dashed=0;html=1;strokeColor=none;fillColor=#FFFF66;labelPosition=center;verticalLabelPosition=bottom;verticalAlign=top;outlineConnect=0;align=center;shape=mxgraph.office.concepts.folder;fillStyle=solid;fontColor=#FF6666;" parent="5" vertex="1">
                    <mxGeometry x="130" y="40" width="50" height="50" as="geometry"/>
                </mxCell>
                <mxCell id="41" value="" style="endArrow=none;html=1;strokeColor=#FFFFFF;endFill=0;" parent="5" source="24" target="40" edge="1">
                    <mxGeometry width="50" height="50" relative="1" as="geometry">
                        <mxPoint x="250" y="180" as="sourcePoint"/>
                        <mxPoint x="300" y="130" as="targetPoint"/>
                    </mxGeometry>
                </mxCell>
                <mxCell id="43" value="build" style="sketch=0;pointerEvents=1;shadow=0;dashed=0;html=1;strokeColor=none;fillColor=#FFFF66;labelPosition=center;verticalLabelPosition=bottom;verticalAlign=top;outlineConnect=0;align=center;shape=mxgraph.office.concepts.folder;fillStyle=solid;fontColor=#FF6666;" parent="5" vertex="1">
                    <mxGeometry x="130" y="120" width="50" height="50" as="geometry"/>
                </mxCell>
                <mxCell id="42" value="" style="endArrow=none;html=1;strokeColor=#FFFFFF;rounded=0;curved=0;" parent="5" source="24" target="43" edge="1">
                    <mxGeometry width="50" height="50" relative="1" as="geometry">
                        <mxPoint x="260" y="140" as="sourcePoint"/>
                        <mxPoint x="90" y="170" as="targetPoint"/>
                        <Array as="points">
                            <mxPoint x="100" y="65"/>
                            <mxPoint x="100" y="145"/>
                        </Array>
                    </mxGeometry>
                </mxCell>
                <mxCell id="44" style="edgeStyle=none;html=1;strokeColor=#FFFF66;" parent="1" source="75" target="40" edge="1">
                    <mxGeometry relative="1" as="geometry">
                        <Array as="points">
                            <mxPoint x="824" y="255"/>
                            <mxPoint x="824" y="330"/>
                            <mxPoint x="515" y="330"/>
                        </Array>
                    </mxGeometry>
                </mxCell>
                <mxCell id="46" style="edgeStyle=none;html=1;strokeColor=#FFFF66;" parent="1" source="73" target="45" edge="1">
                    <mxGeometry relative="1" as="geometry">
                        <Array as="points">
                            <mxPoint x="995" y="175"/>
                        </Array>
                    </mxGeometry>
                </mxCell>
                <mxCell id="51" style="edgeStyle=none;html=1;strokeColor=#FFFF66;fontColor=#FFFFFF;labelBackgroundColor=none;" parent="1" source="24" target="47" edge="1">
                    <mxGeometry relative="1" as="geometry">
                        <Array as="points">
                            <mxPoint x="450" y="415"/>
                            <mxPoint x="450" y="570"/>
                            <mxPoint x="770" y="570"/>
                            <mxPoint x="770" y="415"/>
                        </Array>
                    </mxGeometry>
                </mxCell>
                <mxCell id="52" value="package.json" style="edgeLabel;html=1;align=center;verticalAlign=middle;resizable=0;points=[];labelBackgroundColor=none;fontColor=#FF6666;" parent="51" vertex="1" connectable="0">
                    <mxGeometry x="-0.0238" y="-1" relative="1" as="geometry">
                        <mxPoint x="-7" y="-8" as="offset"/>
                    </mxGeometry>
                </mxCell>
                <mxCell id="53" style="edgeStyle=none;html=1;strokeColor=#FFFF66;" parent="1" source="43" target="48" edge="1">
                    <mxGeometry relative="1" as="geometry">
                        <Array as="points">
                            <mxPoint x="590" y="495"/>
                            <mxPoint x="590" y="540"/>
                            <mxPoint x="920" y="540"/>
                            <mxPoint x="920" y="495"/>
                        </Array>
                    </mxGeometry>
                </mxCell>
                <mxCell id="60" style="edgeStyle=none;html=1;strokeColor=#FFFF66;" parent="1" source="48" target="59" edge="1">
                    <mxGeometry relative="1" as="geometry">
                        <Array as="points">
                            <mxPoint x="1140" y="495"/>
                            <mxPoint x="1140" y="660"/>
                            <mxPoint x="980" y="660"/>
                        </Array>
                    </mxGeometry>
                </mxCell>
                <mxCell id="65" value="" style="edgeStyle=none;html=1;strokeColor=#FFFF66;labelBackgroundColor=#000000;fontColor=#FFFFFF;" parent="1" source="19" target="35" edge="1">
                    <mxGeometry relative="1" as="geometry">
                        <mxPoint x="420" y="90" as="sourcePoint"/>
                        <mxPoint x="675" y="175" as="targetPoint"/>
                        <Array as="points"/>
                    </mxGeometry>
                </mxCell>
                <mxCell id="35" value="&lt;font style=&quot;color: rgb(255, 102, 102);&quot;&gt;package.json&lt;/font&gt;&lt;div&gt;&lt;font style=&quot;color: rgb(255, 102, 102);&quot;&gt;bun.lock&lt;/font&gt;&lt;/div&gt;" style="text;html=1;align=center;verticalAlign=middle;whiteSpace=wrap;rounded=0;fontColor=#FF6666;labelBackgroundColor=none;" parent="1" vertex="1">
                    <mxGeometry x="420" y="60" width="90" height="60" as="geometry"/>
                </mxCell>
                <mxCell id="74" value="" style="edgeStyle=none;html=1;strokeColor=#FFFFFF;endArrow=none;endFill=0;rounded=0;curved=0;" parent="1" source="26" target="73" edge="1">
                    <mxGeometry relative="1" as="geometry">
                        <mxPoint x="677" y="175" as="sourcePoint"/>
                        <mxPoint x="995" y="390" as="targetPoint"/>
                        <Array as="points"/>
                    </mxGeometry>
                </mxCell>
                <mxCell id="73" value="node_modules" style="sketch=0;pointerEvents=1;shadow=0;dashed=0;html=1;strokeColor=none;fillColor=#FFFF66;labelPosition=center;verticalLabelPosition=bottom;verticalAlign=top;outlineConnect=0;align=center;shape=mxgraph.office.concepts.folder;fillStyle=solid;fontColor=#FF6666;" parent="1" vertex="1">
                    <mxGeometry x="719" y="150" width="50" height="50" as="geometry"/>
                </mxCell>
                <mxCell id="75" value="node_modules" style="sketch=0;pointerEvents=1;shadow=0;dashed=0;html=1;strokeColor=none;fillColor=#FFFF66;labelPosition=center;verticalLabelPosition=bottom;verticalAlign=top;outlineConnect=0;align=center;shape=mxgraph.office.concepts.folder;fillStyle=solid;fontColor=#FF6666;" parent="1" vertex="1">
                    <mxGeometry x="719" y="230" width="50" height="50" as="geometry"/>
                </mxCell>
                <mxCell id="77" style="edgeStyle=none;html=1;endArrow=none;endFill=0;strokeColor=#FFFFFF;rounded=0;curved=0;" parent="1" source="25" target="75" edge="1">
                    <mxGeometry relative="1" as="geometry"/>
                </mxCell>
            </root>
        </mxGraphModel>
    </diagram>
</mxfile>